<svg width="80" height="80" viewBox="0 0 80 80" fill="none" xmlns="http://www.w3.org/2000/svg">
<path d="M60.9451 23.9695C62.588 26.1241 63.8672 28.4672 64.8637 31.0662C66.9241 30.3121 68.944 29.5849 71.0717 28.8039C68.6208 22.2862 64.6214 17.0883 58.9521 13.0215C57.6863 14.826 56.4474 16.59 55.1681 18.4214C57.3631 20.0239 59.3022 21.8418 60.9451 23.9695Z" fill="#DD2B1C"/>
<path d="M51.1955 16.0785C52.1112 14.1259 53.0135 12.1733 53.983 10.0995C43.3582 5.62873 33.0027 5.84419 23.1051 11.7289C13.5306 17.4251 8.33266 26.0839 6.99951 37.2339C9.2753 37.4359 11.4299 37.6244 13.571 37.8129C14.7426 20.9667 33.3528 8.05265 51.1955 16.0785Z" fill="#DD2B1C"/>
<path d="M13.4636 42.4316C11.4168 42.6067 9.28912 42.7952 7.17493 42.9703C7.67318 56.4365 19.4157 71.5725 37.1103 72.9999C37.2988 70.8184 37.4873 68.6907 37.6624 66.6169C23.8326 64.3277 15.8068 56.3018 13.4636 42.4316Z" fill="#DD2B1C"/>
<path d="M61.1736 40.1698C61.1736 28.4946 51.68 19.001 40.0048 19.001C28.3296 19.001 18.8359 28.4946 18.8359 40.1698C18.8359 51.845 28.3296 61.3387 40.0048 61.3387C51.68 61.3387 61.1736 51.845 61.1736 40.1698ZM41.2975 44.6002L37.4193 48.465L33.5545 44.5867L29.8378 40.8431L33.7161 36.9783L37.4327 40.7219L46.3204 31.8747L50.1852 35.7529L41.2975 44.6002Z" fill="#DD2B1C"/>
<path d="M72.5258 34.3926C70.4116 34.7562 68.2705 35.1332 66.0621 35.5103C67.2067 43.2264 65.6177 50.1615 60.9045 56.2617C56.2183 62.3215 49.9565 65.6476 42.2808 66.496C42.4693 68.6775 42.6578 70.7917 42.8329 72.9193C58.8846 72.3538 76.0944 56.2347 72.5258 34.3926Z" fill="#DD2B1C"/>
</svg>
