<svg width="80" height="80" viewBox="0 0 80 80" fill="none" xmlns="http://www.w3.org/2000/svg">
<path d="M40 14.1596C43.7555 14.1596 46.8 11.1151 46.8 7.35957C46.8 3.60403 43.7555 0.55957 40 0.55957C36.2444 0.55957 33.2 3.60403 33.2 7.35957C33.2 11.1151 36.2444 14.1596 40 14.1596Z" fill="#DD2B1C"/>
<path d="M35.648 57.6792H44.352L46.528 35.9192L50.88 33.7432V20.9592C50.88 19.1557 50.1636 17.4261 48.8883 16.1509C47.6131 14.8756 45.8835 14.1592 44.08 14.1592H35.92C34.1165 14.1592 32.3869 14.8756 31.1117 16.1509C29.8364 17.4261 29.12 19.1557 29.12 20.9592V33.7432L33.472 35.9192L35.648 57.6792Z" fill="#DD2B1C"/>
<path d="M71.1848 56.3199C70.26 48.2959 61.1616 41.6455 48.908 39.4287L48.5 43.5087C57.884 45.3991 64.82 50.3087 65.7312 56.2655H63.12V58.9855H65.7176C64.5752 66.3431 54.212 72.1639 41.36 72.5855V69.9199H38.64V72.6399C25.788 72.2591 15.4248 66.4383 14.2824 59.0399H16.88V56.3199H14.2688C15.2072 50.3903 22.116 45.4399 31.5 43.5631L31.092 39.4831C18.8384 41.6455 9.74 48.2959 8.8152 56.3199H6V59.0399H8.8016C9.9168 68.6415 22.7416 76.2847 38.64 76.7199V79.4399H41.36V76.7199C57.2584 76.3119 70.0832 68.6687 71.1984 59.0399H74V56.3199H71.1848Z" fill="#DD2B1C"/>
<path d="M32.3568 52.0626L31.9352 47.833C25.448 49.5194 20.96 53.3274 20.96 57.6794C20.96 63.6906 29.4872 68.5594 40 68.5594C50.5128 68.5594 59.04 63.6906 59.04 57.6794C59.04 53.3274 54.552 49.5194 48.0648 47.833L47.6432 52.0626C51.2336 53.2866 53.6 55.3402 53.6 57.6794C53.6 61.433 47.5072 64.4794 40 64.4794C32.4928 64.4794 26.4 61.433 26.4 57.6794C26.4 55.3402 28.7664 53.2866 32.3568 52.0626Z" fill="#DD2B1C"/>
</svg>
