<svg width="80" height="80" viewBox="0 0 80 80" fill="none" xmlns="http://www.w3.org/2000/svg">
<path d="M19.3333 20.3337C16.6666 17.667 5.33328 17.0004 1.66656 16.667C1.33328 16.667 0.999844 16.667 0.666562 17.0003C0.333281 17.3337 0 18.0004 0 18.3337V48.3337C0 49.3337 0.666719 50.0004 1.66672 50.0004H11.6667C12.3334 50.0004 13 49.6671 13.3334 49.0004C13.3334 48.0004 19.3334 30.3337 20.0002 21.6671C20 21.3337 20 20.6671 19.3333 20.3337Z" fill="#DD2B1C"/>
<path d="M55 28.3336C51.6667 27.3336 48.6667 26.0003 45.9999 25.0003C39.9999 22.3336 37.3332 23.6671 32 29.0003C29.6667 31.3336 27.9999 34.6671 28.3332 36.0003C28.3332 36.3336 28.3332 36.3336 29 36.6671C30.6667 37.3338 32.9999 37.6671 35.3332 34.0003C35.6665 33.6671 36 33.3336 36.6665 33.3336C37.6665 33.3336 37.9998 33.0003 38.9998 32.6669C39.6665 32.3336 40.3331 32.0002 41.3331 31.6669C41.6664 31.6669 41.6664 31.6669 41.9998 31.6669C42.3331 31.6669 42.9998 32.0002 43.3331 32.0002C45 33.6671 48 36.0003 51 38.6671C55.6667 42.3338 60.3332 46.3338 62.6667 49.3338H63C60.6667 42.6671 56.6667 31.3336 55 28.3336Z" fill="#DD2B1C"/>
<path d="M78.3332 20C65.3332 20 57.9999 23.3333 57.6665 23.3333C57.3332 23.6666 56.9998 24 56.6665 24.3333C56.6665 24.6666 56.6665 25.3333 56.9998 25.6666C58.9998 28.9998 65.6665 47.3333 66.6665 51.9998C66.9998 52.6666 67.6665 53.3331 68.3332 53.3331H78.3332C79.3332 53.3331 79.9999 52.6664 79.9999 51.6664V21.6664C79.9999 20.6667 79.3332 20 78.3332 20Z" fill="#DD2B1C"/>
<path d="M60.3333 52.667C59.0001 49.667 53.3333 45.3337 48.3333 41.3337C45.6668 39.0003 43.0001 37.0003 41.0001 35.3336C40.6668 35.6668 40.0001 35.6668 40.0001 36.0003C39.0001 36.3336 38.6668 36.667 37.3333 36.667C34.6668 40.0003 31.3333 41.3336 27.6668 40.0003C26.0001 39.667 25.0001 38.3336 24.6668 37.0003C24.0001 33.667 27.0001 29.0003 29.3335 26.667H22.6668C21.3335 33.3337 19.0001 42.0003 17.3335 46.667C18.6668 48.0003 20.0002 49.667 21.0002 50.3337C27.3335 55.667 34.6669 61.0004 36.0002 62.0004C37.0002 62.6671 39.0002 63.3337 40.0002 63.3337C40.3335 63.3337 40.6669 63.3337 41.0002 63.3337L35.6668 58.0003C35.0001 57.3336 35.0001 56.3336 35.6668 55.667C36.3335 55.0004 37.3335 55.0003 38.0001 55.667L44.6668 62.3337C45.3335 63.0004 46.0001 62.667 46.6668 62.667C47.6668 62.3337 48.0001 61.667 48.3335 60.667L40.6668 53.0003C40.0001 52.3336 40.0001 51.3336 40.6668 50.667C41.3335 50.0004 42.3335 50.0003 43.0001 50.667L51.3333 59.0003C51.6666 59.3336 53.0001 59.3336 54.0001 59.0003C54.3333 58.667 55.0001 58.3336 55.3333 57.667L46.0001 48.3336C45.3333 47.6668 45.3333 46.6668 46.0001 46.0003C46.6668 45.3337 47.6668 45.3336 48.3333 46.0003L58.0001 55.667C58.6668 56.0003 59.3333 55.667 60.0001 55.3337C60.3333 55.0003 61.0001 54.0003 60.3333 52.667Z" fill="#DD2B1C"/>
</svg>
