<svg width="80" height="80" viewBox="0 0 80 80" fill="none" xmlns="http://www.w3.org/2000/svg">
<path d="M28 21.9995H52C53.1045 21.9995 54 21.1041 54 19.9995V11.9995C54 10.895 53.1045 9.99954 52 9.99954H45.6664C45.3776 9.16021 44.9067 8.38408 44.2741 7.72234C43.1299 6.52541 41.6119 5.86621 40 5.86621C38.3881 5.86621 36.8701 6.52541 35.7259 7.72234C35.0933 8.38408 34.6224 9.16021 34.3336 9.99954H28C26.8955 9.99954 26 10.895 26 11.9995V19.9995C26 21.1041 26.8955 21.9995 28 21.9995Z" fill="#DD2B1C"/>
<path d="M40 34C41.1046 34 42 33.1046 42 32C42 30.8954 41.1046 30 40 30C38.8954 30 38 30.8954 38 32C38 33.1046 38.8954 34 40 34Z" fill="#DD2B1C"/>
<path d="M38.6667 38C36.0935 38 34 40.0935 34 42.6667V46H46V42.6667C46 40.0935 43.9065 38 41.3333 38H38.6667Z" fill="#DD2B1C"/>
<path d="M60 14H58V20C58 23.3084 55.3084 26 52 26H40C43.3084 26 46 28.6916 46 32C46 33.0639 45.7204 34.0632 45.2328 34.9305C48.0577 36.3603 50 39.29 50 42.6667V48C50 49.1045 49.1045 50 48 50H32C30.8955 50 30 49.1045 30 48V42.6667C30 39.29 31.9423 36.3603 34.7672 34.9305C34.2796 34.0632 34 33.0639 34 32C34 28.6916 36.6916 26 40 26H28C24.6916 26 22 23.3084 22 20V14H20C16.6916 14 14 16.6916 14 20V68.1333C14 71.4417 16.6916 74.1333 20 74.1333H60C63.3084 74.1333 66 71.4417 66 68.1333V20C66 16.6916 63.3084 14 60 14ZM52 66H28C26.8955 66 26 65.1045 26 64C26 62.8955 26.8955 62 28 62H52C53.1045 62 54 62.8955 54 64C54 65.1045 53.1045 66 52 66ZM52 58H28C26.8955 58 26 57.1045 26 56C26 54.8955 26.8955 54 28 54H52C53.1045 54 54 54.8955 54 56C54 57.1045 53.1045 58 52 58Z" fill="#DD2B1C"/>
</svg>
