<svg width="420" height="90" viewBox="0 0 420 90" fill="none" xmlns="http://www.w3.org/2000/svg">
<path d="M77.1179 19.872H66.8139V46H59.4539V19.872H49.1959V13.8H77.1179V19.872ZM95.2879 20.884C97.5879 20.884 99.6732 21.4207 101.544 22.494C103.445 23.5367 104.933 25.024 106.006 26.956C107.079 28.8573 107.616 31.0807 107.616 33.626C107.616 36.1713 107.079 38.41 106.006 40.342C104.933 42.2433 103.445 43.7307 101.544 44.804C99.6732 45.8467 97.5879 46.368 95.2879 46.368C92.1292 46.368 89.6452 45.3713 87.8359 43.378V54.924H80.6599V21.252H87.5139V24.104C89.2925 21.9573 91.8839 20.884 95.2879 20.884ZM94.0459 40.48C95.8859 40.48 97.3885 39.8667 98.5539 38.64C99.7499 37.3827 100.348 35.7113 100.348 33.626C100.348 31.5407 99.7499 29.8847 98.5539 28.658C97.3885 27.4007 95.8859 26.772 94.0459 26.772C92.2059 26.772 90.6879 27.4007 89.4919 28.658C88.3265 29.8847 87.7439 31.5407 87.7439 33.626C87.7439 35.7113 88.3265 37.3827 89.4919 38.64C90.6879 39.8667 92.2059 40.48 94.0459 40.48ZM121.855 20.884C125.688 20.884 128.632 21.804 130.687 23.644C132.742 25.4533 133.769 28.198 133.769 31.878V46H127.053V42.918C125.704 45.218 123.189 46.368 119.509 46.368C117.608 46.368 115.952 46.046 114.541 45.402C113.161 44.758 112.103 43.8687 111.367 42.734C110.631 41.5993 110.263 40.3113 110.263 38.87C110.263 36.57 111.122 34.7607 112.839 33.442C114.587 32.1233 117.27 31.464 120.889 31.464H126.593C126.593 29.9 126.118 28.704 125.167 27.876C124.216 27.0173 122.79 26.588 120.889 26.588C119.57 26.588 118.267 26.8027 116.979 27.232C115.722 27.6307 114.648 28.1827 113.759 28.888L111.183 23.874C112.532 22.9233 114.142 22.1873 116.013 21.666C117.914 21.1447 119.862 20.884 121.855 20.884ZM121.303 41.538C122.53 41.538 123.618 41.262 124.569 40.71C125.52 40.1273 126.194 39.284 126.593 38.18V35.65H121.671C118.727 35.65 117.255 36.616 117.255 38.548C117.255 39.468 117.608 40.204 118.313 40.756C119.049 41.2773 120.046 41.538 121.303 41.538ZM140.003 21.252H147.133V30.912H157.897V21.252H165.073V46H157.897V36.754H147.133V46H140.003V21.252ZM183.718 46.368C181.081 46.368 178.704 45.8313 176.588 44.758C174.503 43.654 172.862 42.136 171.666 40.204C170.501 38.272 169.918 36.0793 169.918 33.626C169.918 31.1727 170.501 28.98 171.666 27.048C172.862 25.116 174.503 23.6133 176.588 22.54C178.704 21.436 181.081 20.884 183.718 20.884C186.325 20.884 188.594 21.436 190.526 22.54C192.489 23.6133 193.915 25.162 194.804 27.186L189.238 30.176C187.95 27.9067 186.095 26.772 183.672 26.772C181.802 26.772 180.253 27.3853 179.026 28.612C177.8 29.8387 177.186 31.51 177.186 33.626C177.186 35.742 177.8 37.4133 179.026 38.64C180.253 39.8667 181.802 40.48 183.672 40.48C186.126 40.48 187.981 39.3453 189.238 37.076L194.804 40.112C193.915 42.0747 192.489 43.608 190.526 44.712C188.594 45.816 186.325 46.368 183.718 46.368Z" fill="#181515"/>
<path d="M213.747 20.884C216.047 20.884 218.132 21.4207 220.003 22.494C221.904 23.5367 223.392 25.024 224.465 26.956C225.538 28.8573 226.075 31.0807 226.075 33.626C226.075 36.1713 225.538 38.41 224.465 40.342C223.392 42.2433 221.904 43.7307 220.003 44.804C218.132 45.8467 216.047 46.368 213.747 46.368C210.588 46.368 208.104 45.3713 206.295 43.378V54.924H199.119V21.252H205.973V24.104C207.752 21.9573 210.343 20.884 213.747 20.884ZM212.505 40.48C214.345 40.48 215.848 39.8667 217.013 38.64C218.209 37.3827 218.807 35.7113 218.807 33.626C218.807 31.5407 218.209 29.8847 217.013 28.658C215.848 27.4007 214.345 26.772 212.505 26.772C210.665 26.772 209.147 27.4007 207.951 28.658C206.786 29.8847 206.203 31.5407 206.203 33.626C206.203 35.7113 206.786 37.3827 207.951 38.64C209.147 39.8667 210.665 40.48 212.505 40.48ZM255.162 33.718C255.162 33.81 255.116 34.454 255.024 35.65H236.302C236.64 37.1833 237.437 38.3947 238.694 39.284C239.952 40.1733 241.516 40.618 243.386 40.618C244.674 40.618 245.809 40.434 246.79 40.066C247.802 39.6673 248.738 39.054 249.596 38.226L253.414 42.366C251.084 45.034 247.68 46.368 243.202 46.368C240.412 46.368 237.943 45.8313 235.796 44.758C233.65 43.654 231.994 42.136 230.828 40.204C229.663 38.272 229.08 36.0793 229.08 33.626C229.08 31.2033 229.648 29.026 230.782 27.094C231.948 25.1313 233.527 23.6133 235.52 22.54C237.544 21.436 239.798 20.884 242.282 20.884C244.705 20.884 246.898 21.4053 248.86 22.448C250.823 23.4907 252.356 24.9933 253.46 26.956C254.595 28.888 255.162 31.142 255.162 33.718ZM242.328 26.312C240.703 26.312 239.338 26.772 238.234 27.692C237.13 28.612 236.456 29.8693 236.21 31.464H248.4C248.155 29.9 247.48 28.658 246.376 27.738C245.272 26.7873 243.923 26.312 242.328 26.312ZM272.439 46.368C269.802 46.368 267.425 45.8313 265.309 44.758C263.224 43.654 261.583 42.136 260.387 40.204C259.222 38.272 258.639 36.0793 258.639 33.626C258.639 31.1727 259.222 28.98 260.387 27.048C261.583 25.116 263.224 23.6133 265.309 22.54C267.425 21.436 269.802 20.884 272.439 20.884C275.046 20.884 277.315 21.436 279.247 22.54C281.21 23.6133 282.636 25.162 283.525 27.186L277.959 30.176C276.671 27.9067 274.816 26.772 272.393 26.772C270.522 26.772 268.974 27.3853 267.747 28.612C266.52 29.8387 265.907 31.51 265.907 33.626C265.907 35.742 266.52 37.4133 267.747 38.64C268.974 39.8667 270.522 40.48 272.393 40.48C274.846 40.48 276.702 39.3453 277.959 37.076L283.525 40.112C282.636 42.0747 281.21 43.608 279.247 44.712C277.315 45.816 275.046 46.368 272.439 46.368ZM312.32 21.252L301.142 47.518C300.008 50.37 298.597 52.3787 296.91 53.544C295.254 54.7093 293.246 55.292 290.884 55.292C289.596 55.292 288.324 55.0927 287.066 54.694C285.809 54.2953 284.782 53.7433 283.984 53.038L286.606 47.932C287.158 48.4227 287.787 48.806 288.492 49.082C289.228 49.358 289.949 49.496 290.654 49.496C291.636 49.496 292.433 49.2507 293.046 48.76C293.66 48.3 294.212 47.518 294.702 46.414L294.794 46.184L284.076 21.252H291.482L298.428 38.042L305.42 21.252H312.32ZM330.364 20.884C332.664 20.884 334.749 21.4207 336.62 22.494C338.521 23.5367 340.009 25.024 341.082 26.956C342.155 28.8573 342.692 31.0807 342.692 33.626C342.692 36.1713 342.155 38.41 341.082 40.342C340.009 42.2433 338.521 43.7307 336.62 44.804C334.749 45.8467 332.664 46.368 330.364 46.368C327.205 46.368 324.721 45.3713 322.912 43.378V54.924H315.736V21.252H322.59V24.104C324.369 21.9573 326.96 20.884 330.364 20.884ZM329.122 40.48C330.962 40.48 332.465 39.8667 333.63 38.64C334.826 37.3827 335.424 35.7113 335.424 33.626C335.424 31.5407 334.826 29.8847 333.63 28.658C332.465 27.4007 330.962 26.772 329.122 26.772C327.282 26.772 325.764 27.4007 324.568 28.658C323.403 29.8847 322.82 31.5407 322.82 33.626C322.82 35.7113 323.403 37.3827 324.568 38.64C325.764 39.8667 327.282 40.48 329.122 40.48ZM359.497 46.368C356.86 46.368 354.483 45.8313 352.367 44.758C350.282 43.654 348.641 42.136 347.445 40.204C346.28 38.272 345.697 36.0793 345.697 33.626C345.697 31.1727 346.28 28.98 347.445 27.048C348.641 25.116 350.282 23.6133 352.367 22.54C354.483 21.436 356.86 20.884 359.497 20.884C362.104 20.884 364.373 21.436 366.305 22.54C368.268 23.6133 369.694 25.162 370.583 27.186L365.017 30.176C363.729 27.9067 361.874 26.772 359.451 26.772C357.581 26.772 356.032 27.3853 354.805 28.612C353.579 29.8387 352.965 31.51 352.965 33.626C352.965 35.742 353.579 37.4133 354.805 38.64C356.032 39.8667 357.581 40.48 359.451 40.48C361.905 40.48 363.76 39.3453 365.017 37.076L370.583 40.112C369.694 42.0747 368.268 43.608 366.305 44.712C364.373 45.816 362.104 46.368 359.497 46.368Z" fill="#DD2B1C"/>
<path d="M9.03181 82.2H3.07981L1.84781 85H0.199813L5.27181 73.8H6.85581L11.9438 85H10.2638L9.03181 82.2ZM8.47181 80.92L6.05581 75.432L3.63981 80.92H8.47181ZM18.7606 85.128C17.6299 85.128 16.6112 84.8827 15.7046 84.392C14.7979 83.8907 14.0832 83.2027 13.5606 82.328C13.0486 81.4533 12.7926 80.4773 12.7926 79.4C12.7926 78.3227 13.0486 77.3467 13.5606 76.472C14.0832 75.5973 14.7979 74.9147 15.7046 74.424C16.6112 73.9227 17.6299 73.672 18.7606 73.672C19.8806 73.672 20.8939 73.9227 21.8006 74.424C22.7072 74.9147 23.4166 75.5973 23.9286 76.472C24.4406 77.336 24.6966 78.312 24.6966 79.4C24.6966 80.488 24.4406 81.4693 23.9286 82.344C23.4166 83.208 22.7072 83.8907 21.8006 84.392C20.8939 84.8827 19.8806 85.128 18.7606 85.128ZM18.7606 83.704C19.5819 83.704 20.3179 83.5173 20.9686 83.144C21.6299 82.7707 22.1472 82.2587 22.5206 81.608C22.9046 80.9467 23.0966 80.2107 23.0966 79.4C23.0966 78.5893 22.9046 77.8587 22.5206 77.208C22.1472 76.5467 21.6299 76.0293 20.9686 75.656C20.3179 75.2827 19.5819 75.096 18.7606 75.096C17.9392 75.096 17.1926 75.2827 16.5206 75.656C15.8592 76.0293 15.3366 76.5467 14.9526 77.208C14.5792 77.8587 14.3926 78.5893 14.3926 79.4C14.3926 80.2107 14.5792 80.9467 14.9526 81.608C15.3366 82.2587 15.8592 82.7707 16.5206 83.144C17.1926 83.5173 17.9392 83.704 18.7606 83.704ZM41.2279 73.8V85H39.6599V75.192H33.1639V85H31.5799V73.8H41.2279ZM49.0886 73.8C50.5392 73.8 51.6806 74.1467 52.5126 74.84C53.3446 75.5333 53.7606 76.488 53.7606 77.704C53.7606 78.92 53.3446 79.8747 52.5126 80.568C51.6806 81.2613 50.5392 81.608 49.0886 81.608H46.3206V85H44.7206V73.8H49.0886ZM49.0406 80.216C50.0539 80.216 50.8272 80.0027 51.3606 79.576C51.8939 79.1387 52.1606 78.5147 52.1606 77.704C52.1606 76.8933 51.8939 76.2747 51.3606 75.848C50.8272 75.4107 50.0539 75.192 49.0406 75.192H46.3206V80.216H49.0406ZM61.1824 85.128C60.0518 85.128 59.0331 84.8827 58.1264 84.392C57.2198 83.8907 56.5051 83.2027 55.9824 82.328C55.4704 81.4533 55.2144 80.4773 55.2144 79.4C55.2144 78.3227 55.4704 77.3467 55.9824 76.472C56.5051 75.5973 57.2198 74.9147 58.1264 74.424C59.0331 73.9227 60.0518 73.672 61.1824 73.672C62.3024 73.672 63.3158 73.9227 64.2224 74.424C65.1291 74.9147 65.8384 75.5973 66.3504 76.472C66.8624 77.336 67.1184 78.312 67.1184 79.4C67.1184 80.488 66.8624 81.4693 66.3504 82.344C65.8384 83.208 65.1291 83.8907 64.2224 84.392C63.3158 84.8827 62.3024 85.128 61.1824 85.128ZM61.1824 83.704C62.0038 83.704 62.7398 83.5173 63.3904 83.144C64.0518 82.7707 64.5691 82.2587 64.9424 81.608C65.3264 80.9467 65.5184 80.2107 65.5184 79.4C65.5184 78.5893 65.3264 77.8587 64.9424 77.208C64.5691 76.5467 64.0518 76.0293 63.3904 75.656C62.7398 75.2827 62.0038 75.096 61.1824 75.096C60.3611 75.096 59.6144 75.2827 58.9424 75.656C58.2811 76.0293 57.7584 76.5467 57.3744 77.208C57.0011 77.8587 56.8144 78.5893 56.8144 79.4C56.8144 80.2107 57.0011 80.9467 57.3744 81.608C57.7584 82.2587 58.2811 82.7707 58.9424 83.144C59.6144 83.5173 60.3611 83.704 61.1824 83.704ZM80.0889 85L80.0729 76.84L76.0249 83.64H75.2889L71.2409 76.888V85H69.7049V73.8H71.0169L75.6889 81.672L80.2969 73.8H81.6089L81.6249 85H80.0889ZM90.0232 77.704C91.3565 77.704 92.3752 78.0027 93.0792 78.6C93.7939 79.1973 94.1512 80.0773 94.1512 81.24C94.1512 82.4667 93.7672 83.4 92.9992 84.04C92.2419 84.68 91.1539 85 89.7352 85H85.1112V73.8H86.6952V77.704H90.0232ZM89.6712 83.736C90.5992 83.736 91.3085 83.528 91.7992 83.112C92.3005 82.6853 92.5512 82.072 92.5512 81.272C92.5512 79.736 91.5912 78.968 89.6712 78.968H86.6952V83.736H89.6712ZM95.9272 73.8H97.5112V85H95.9272V73.8ZM115.034 73.8V85H101.002V73.8H102.586V83.608H107.242V73.8H108.81V83.608H113.466V73.8H115.034ZM127.529 73.8V85H125.961V75.192H121.001L120.889 78.472C120.835 80.0187 120.707 81.272 120.505 82.232C120.313 83.192 120.003 83.9173 119.577 84.408C119.15 84.888 118.574 85.128 117.849 85.128C117.518 85.128 117.182 85.0853 116.841 85L116.953 83.576C117.123 83.6187 117.294 83.64 117.465 83.64C117.923 83.64 118.291 83.4587 118.569 83.096C118.846 82.7227 119.054 82.168 119.193 81.432C119.331 80.696 119.422 79.7253 119.465 78.52L119.641 73.8H127.529ZM139.145 83.608V85H131.017V73.8H138.921V75.192H132.617V78.632H138.233V79.992H132.617V83.608H139.145ZM151.29 73.8V85H149.69V80.008H143.258V85H141.658V73.8H143.258V78.616H149.69V73.8H151.29ZM164.415 73.8V85H162.815V80.008H156.383V85H154.783V73.8H156.383V78.616H162.815V73.8H164.415ZM172.948 85.128C171.817 85.128 170.799 84.8827 169.892 84.392C168.985 83.8907 168.271 83.2027 167.748 82.328C167.236 81.4533 166.98 80.4773 166.98 79.4C166.98 78.3227 167.236 77.3467 167.748 76.472C168.271 75.5973 168.985 74.9147 169.892 74.424C170.799 73.9227 171.817 73.672 172.948 73.672C174.068 73.672 175.081 73.9227 175.988 74.424C176.895 74.9147 177.604 75.5973 178.116 76.472C178.628 77.336 178.884 78.312 178.884 79.4C178.884 80.488 178.628 81.4693 178.116 82.344C177.604 83.208 176.895 83.8907 175.988 84.392C175.081 84.8827 174.068 85.128 172.948 85.128ZM172.948 83.704C173.769 83.704 174.505 83.5173 175.156 83.144C175.817 82.7707 176.335 82.2587 176.708 81.608C177.092 80.9467 177.284 80.2107 177.284 79.4C177.284 78.5893 177.092 77.8587 176.708 77.208C176.335 76.5467 175.817 76.0293 175.156 75.656C174.505 75.2827 173.769 75.096 172.948 75.096C172.127 75.096 171.38 75.2827 170.708 75.656C170.047 76.0293 169.524 76.5467 169.14 77.208C168.767 77.8587 168.58 78.5893 168.58 79.4C168.58 80.2107 168.767 80.9467 169.14 81.608C169.524 82.2587 170.047 82.7707 170.708 83.144C171.38 83.5173 172.127 83.704 172.948 83.704ZM180.748 79.944H185.052V81.272H180.748V79.944ZM200.166 79.384C200.166 80.8667 199.649 82.0293 198.614 82.872C197.58 83.7147 196.118 84.168 194.23 84.232V85.416H192.742V84.232C190.854 84.1573 189.388 83.6987 188.342 82.856C187.308 82.0133 186.79 80.856 186.79 79.384C186.79 77.9013 187.308 76.7387 188.342 75.896C189.388 75.0533 190.854 74.5947 192.742 74.52V73.384H194.23V74.52C196.108 74.5947 197.564 75.0587 198.598 75.912C199.644 76.7547 200.166 77.912 200.166 79.384ZM194.23 82.984C195.66 82.8987 196.748 82.552 197.494 81.944C198.252 81.3253 198.63 80.4667 198.63 79.368C198.63 78.2907 198.246 77.448 197.478 76.84C196.721 76.2213 195.638 75.8693 194.23 75.784V82.984ZM188.342 79.384C188.342 80.472 188.721 81.3253 189.478 81.944C190.246 82.552 191.334 82.8987 192.742 82.984V75.784C191.313 75.8693 190.22 76.216 189.462 76.824C188.716 77.432 188.342 78.2853 188.342 79.384ZM202.627 73.8H204.211V82.44L210.835 73.8H212.307V85H210.739V76.376L204.099 85H202.627V73.8ZM225.431 73.8V85H223.831V80.008H217.399V85H215.799V73.8H217.399V78.616H223.831V73.8H225.431ZM236.204 82.2H230.252L229.02 85H227.372L232.444 73.8H234.028L239.116 85H237.436L236.204 82.2ZM235.644 80.92L233.228 75.432L230.812 80.92H235.644ZM250.681 73.8V85H249.081V80.008H242.649V85H241.049V73.8H242.649V78.616H249.081V73.8H250.681ZM259.182 85.128C258.062 85.128 257.048 84.8827 256.142 84.392C255.246 83.8907 254.542 83.208 254.03 82.344C253.518 81.4693 253.262 80.488 253.262 79.4C253.262 78.312 253.518 77.336 254.03 76.472C254.542 75.5973 255.251 74.9147 256.158 74.424C257.064 73.9227 258.078 73.672 259.198 73.672C260.072 73.672 260.872 73.8213 261.598 74.12C262.323 74.408 262.942 74.84 263.454 75.416L262.414 76.424C261.571 75.5387 260.52 75.096 259.262 75.096C258.43 75.096 257.678 75.2827 257.006 75.656C256.334 76.0293 255.806 76.5467 255.422 77.208C255.048 77.8587 254.862 78.5893 254.862 79.4C254.862 80.2107 255.048 80.9467 255.422 81.608C255.806 82.2587 256.334 82.7707 257.006 83.144C257.678 83.5173 258.43 83.704 259.262 83.704C260.51 83.704 261.56 83.256 262.414 82.36L263.454 83.368C262.942 83.944 262.318 84.3813 261.582 84.68C260.856 84.9787 260.056 85.128 259.182 85.128ZM270.464 85.128C269.333 85.128 268.314 84.8827 267.408 84.392C266.501 83.8907 265.786 83.2027 265.264 82.328C264.752 81.4533 264.496 80.4773 264.496 79.4C264.496 78.3227 264.752 77.3467 265.264 76.472C265.786 75.5973 266.501 74.9147 267.408 74.424C268.314 73.9227 269.333 73.672 270.464 73.672C271.584 73.672 272.597 73.9227 273.504 74.424C274.41 74.9147 275.12 75.5973 275.632 76.472C276.144 77.336 276.4 78.312 276.4 79.4C276.4 80.488 276.144 81.4693 275.632 82.344C275.12 83.208 274.41 83.8907 273.504 84.392C272.597 84.8827 271.584 85.128 270.464 85.128ZM270.464 83.704C271.285 83.704 272.021 83.5173 272.672 83.144C273.333 82.7707 273.85 82.2587 274.224 81.608C274.608 80.9467 274.8 80.2107 274.8 79.4C274.8 78.5893 274.608 77.8587 274.224 77.208C273.85 76.5467 273.333 76.0293 272.672 75.656C272.021 75.2827 271.285 75.096 270.464 75.096C269.642 75.096 268.896 75.2827 268.224 75.656C267.562 76.0293 267.04 76.5467 266.656 77.208C266.282 77.8587 266.096 78.5893 266.096 79.4C266.096 80.2107 266.282 80.9467 266.656 81.608C267.04 82.2587 267.562 82.7707 268.224 83.144C268.896 83.5173 269.642 83.704 270.464 83.704ZM285.962 79.192C286.72 79.3733 287.29 79.6987 287.674 80.168C288.069 80.6267 288.266 81.2187 288.266 81.944C288.266 82.9147 287.909 83.6667 287.194 84.2C286.49 84.7333 285.461 85 284.106 85H278.986V73.8H283.802C285.029 73.8 285.984 74.0507 286.666 74.552C287.36 75.0427 287.706 75.752 287.706 76.68C287.706 77.288 287.552 77.8053 287.242 78.232C286.944 78.6587 286.517 78.9787 285.962 79.192ZM280.57 78.728H283.69C284.469 78.728 285.061 78.5733 285.466 78.264C285.882 77.9547 286.09 77.5013 286.09 76.904C286.09 76.3067 285.882 75.8533 285.466 75.544C285.05 75.224 284.458 75.064 283.69 75.064H280.57V78.728ZM284.074 83.736C285.792 83.736 286.65 83.096 286.65 81.816C286.65 81.176 286.432 80.7067 285.994 80.408C285.568 80.0987 284.928 79.944 284.074 79.944H280.57V83.736H284.074ZM298.219 82.2H292.267L291.035 85H289.387L294.459 73.8H296.043L301.131 85H299.451L298.219 82.2ZM297.659 80.92L295.243 75.432L292.827 80.92H297.659ZM310.741 73.8V85H309.173V81.736H306.085C305.893 81.736 305.749 81.7307 305.653 81.72L303.413 85H301.717L304.197 81.448C303.397 81.1813 302.784 80.7387 302.357 80.12C301.93 79.4907 301.717 78.728 301.717 77.832C301.717 76.5627 302.122 75.576 302.933 74.872C303.754 74.1573 304.858 73.8 306.245 73.8H310.741ZM303.333 77.816C303.333 78.648 303.573 79.288 304.053 79.736C304.544 80.1733 305.264 80.392 306.213 80.392H309.173V75.192H306.309C305.349 75.192 304.613 75.416 304.101 75.864C303.589 76.312 303.333 76.9627 303.333 77.816ZM322.437 80.072H320.101V85H318.533V73.8H320.101V78.664H322.469L325.989 73.8H327.701L323.701 79.224L327.893 85H326.069L322.437 80.072ZM334.542 85.128C333.411 85.128 332.392 84.8827 331.486 84.392C330.579 83.8907 329.864 83.2027 329.342 82.328C328.83 81.4533 328.574 80.4773 328.574 79.4C328.574 78.3227 328.83 77.3467 329.342 76.472C329.864 75.5973 330.579 74.9147 331.486 74.424C332.392 73.9227 333.411 73.672 334.542 73.672C335.662 73.672 336.675 73.9227 337.582 74.424C338.488 74.9147 339.198 75.5973 339.71 76.472C340.222 77.336 340.478 78.312 340.478 79.4C340.478 80.488 340.222 81.4693 339.71 82.344C339.198 83.208 338.488 83.8907 337.582 84.392C336.675 84.8827 335.662 85.128 334.542 85.128ZM334.542 83.704C335.363 83.704 336.099 83.5173 336.75 83.144C337.411 82.7707 337.928 82.2587 338.302 81.608C338.686 80.9467 338.878 80.2107 338.878 79.4C338.878 78.5893 338.686 77.8587 338.302 77.208C337.928 76.5467 337.411 76.0293 336.75 75.656C336.099 75.2827 335.363 75.096 334.542 75.096C333.72 75.096 332.974 75.2827 332.302 75.656C331.64 76.0293 331.118 76.5467 330.734 77.208C330.36 77.8587 330.174 78.5893 330.174 79.4C330.174 80.2107 330.36 80.9467 330.734 81.608C331.118 82.2587 331.64 82.7707 332.302 83.144C332.974 83.5173 333.72 83.704 334.542 83.704ZM353.448 85L353.432 76.84L349.384 83.64H348.648L344.6 76.888V85H343.064V73.8H344.376L349.048 81.672L353.656 73.8H354.968L354.984 85H353.448ZM368.119 73.8V85H366.551V75.192H360.055V85H358.471V73.8H368.119ZM378.891 82.2H372.939L371.707 85H370.059L375.131 73.8H376.715L381.803 85H380.123L378.891 82.2ZM378.331 80.92L375.915 75.432L373.499 80.92H378.331ZM393.368 73.8V85H391.768V80.008H385.336V85H383.736V73.8H385.336V78.616H391.768V73.8H393.368ZM396.861 73.8H398.445V82.44L405.069 73.8H406.541V85H404.973V76.376L398.333 85H396.861V73.8ZM418.241 73.8V85H416.673V81.736H413.585C413.393 81.736 413.249 81.7307 413.153 81.72L410.913 85H409.217L411.697 81.448C410.897 81.1813 410.284 80.7387 409.857 80.12C409.43 79.4907 409.217 78.728 409.217 77.832C409.217 76.5627 409.622 75.576 410.433 74.872C411.254 74.1573 412.358 73.8 413.745 73.8H418.241ZM410.833 77.816C410.833 78.648 411.073 79.288 411.553 79.736C412.044 80.1733 412.764 80.392 413.713 80.392H416.673V75.192H413.809C412.849 75.192 412.113 75.416 411.601 75.864C411.089 76.312 410.833 76.9627 410.833 77.816Z" fill="#4B4241"/>
</svg>
