<svg width="102" height="44" viewBox="0 0 102 44" fill="none" xmlns="http://www.w3.org/2000/svg">
<path d="M1.54709 0.305305C1.42116 0.772243 0 8.15347 0 8.4049C0 8.56653 1.49312 8.62041 5.75661 8.62041C11.3513 8.62041 11.5132 8.63837 11.5132 8.97959C11.5132 9.15918 10.0201 17.0253 8.18518 26.4539C6.35026 35.8824 4.85714 43.6947 4.85714 43.8024C4.85714 43.9461 6.51217 44 10.7757 44C16.2624 44 16.7122 43.982 16.8021 43.6767C16.8741 43.4433 21.1915 21.2457 23.4222 9.64408L23.6201 8.60245L37.2201 8.65633L50.8381 8.71021L51.7016 9.15918C53.2127 9.93143 53.5185 10.9731 52.9608 13.4873C52.4571 15.7502 51.8995 16.5404 50.2804 17.2767C49.381 17.6898 49.345 17.6898 40.1704 17.7437C35.0974 17.7796 30.9418 17.8694 30.9418 17.9412C30.9418 18.0849 26.2825 42.0604 25.9767 43.4971L25.8688 44H31.8772H37.8677L39.5767 35.1461L41.3037 26.3102H44.164C47.4021 26.3102 48.3915 26.5437 49.1831 27.4955C49.9926 28.4473 49.9746 28.7886 48.4815 36.3314C47.7259 40.1927 47.0603 43.5151 47.0063 43.6947C46.9164 44.018 47.582 44.018 63.7185 43.9461C78.5958 43.8922 80.7185 43.8563 82.3556 43.569C89.4434 42.3837 94.2466 39.0073 95.9735 33.9967C96.6032 32.1649 97.3227 28.5371 97.3227 27.1543C97.3227 22.8082 94.6423 19.6653 89.7132 18.2465C88.1841 17.7976 85.3958 17.4204 83.5788 17.4204C81.4021 17.4025 80.4667 16.3429 80.6466 14.1159C80.8265 12.0865 81.2402 10.9731 82.1217 10.129C83.5608 8.74612 83.6148 8.72816 92.5016 8.65633L100.381 8.60245L100.471 8.20735C100.651 7.48898 102 0.341225 102 0.143673C102 0.0179596 99.1757 -0.0179596 93.2392 0.0538788C86.2233 0.107754 84.1365 0.197552 82.8053 0.431023C75.8794 1.65224 70.8603 5.45959 69.3672 10.6318C68.9534 12.0147 68.3598 15.5347 68.3598 16.5763C68.3598 22.0898 73.145 25.951 80.6825 26.4898C82.7693 26.6514 83.5069 26.849 84.1725 27.4057C85.036 28.1241 85.1979 28.9682 84.8201 30.8359C84.4423 32.7935 84.0286 33.6196 83.0751 34.302C81.7439 35.2718 81.7799 35.2718 70.9323 35.3257C61.1101 35.3976 60.8042 35.3796 60.8042 35.0563C60.8042 34.8767 61.0561 33.44 61.3799 31.8596C62.2794 27.3159 62.1354 25.0171 60.8042 22.9339L60.2466 22.0539L61.4878 20.7429C63.4307 18.6596 64.3481 16.6302 65.1217 12.6612C65.9312 8.42286 65.3016 5.87265 62.837 3.59184C61.5058 2.35265 59.3831 1.23918 57.3323 0.718365C54.7058 0.053875 52.1333 0 26.5164 0C2.98624 0 1.63704 0.0179596 1.54709 0.305305Z" fill="#181515"/>
</svg>
